.
..............................Site Info...........................

 -   http://www.scenetime.com  *_*   


Scenetime .Always on time . friendly online private torrent community ..

     We care to share . Join us on  http://www.scenetime.com 

    Be the first to get new release at  http://www.scenetime.com

        Seed back for speed


...................................NFO:.................................................[img]http://i.imgur.com/tpGhr.png[/img]

[b]The.Cabin.in.the.Woods.TS.XViD.AC3-ADTRG[/b]

Five friends go for a break at a remote cabin in the woods, where they get more than they bargained for. Together, they must discover the truth behind the cabin in the woods. 

[url]http://www.imdb.com/title/tt1259521/[/url]

Source - Cam  Lumix ,  cheersto a friend for giving to me Thanks ;)
Source -   Line        Dragon Exclusive, cheers Bro as always awesome work Bro


Complete name                            : The.Cabin.in.the.Woods.TS.XViD.AC3-ADTRG.avi
Format                                   : AVI
Format/Info                              : Audio Video Interleave
File size                                : 1.20 GiB
Duration                                 : 1h 29mn
Overall bit rate                         : 1 920 Kbps

Video
ID                                       : 0
Format                                   : MPEG-4 Visual
Codec ID                                 : XVID
Duration                                 : 1h 29mn
Bit rate                                 : 1 716 Kbps
Width                                    : 640 pixels
Height                                   : 264 pixels
Display aspect ratio                     : 2.40:1
Frame rate                               : 29.640 fps
Stream size                              : 1.07 GiB (89%)

Audio
ID                                       : 1
Format                                   : AC-3
Duration                                 : 1h 29mn
Bit rate                                 : 192 Kbps
Channel(s)                               : 2 channels
Channel positions                        : Front: L R
Stream size                              : 122 MiB (10%)



 Atomic Dragon, You know where to find us, come and say hi ;)

k, first of 35% of movie is very dark, but for the most part you can see whats going on.
the rest is very nice. now the audio is beautifull except about two mins near the end has some niose to it, not a big deal
if you dont like , grab cam lmao.
As always , you know we spent quality time on this for your viewing pleasure , hope you enjoy ;)


[img]http://i.imgur.com/uOgPM.jpg[/img]


[IMG]http://i.imgur.com/2739o.gif?1?8830[/IMG]

Dont fear the Atomic Dragon, Embrace it  :)


Greetz to DragonMaster,cOOkies,Mr Geek,DBratt420,AnimeKing,Cush,NoWoRRiEs Rayne, Mr & Mrs IrNbRu and the rest of the crew

Respect to CM8,Goon,Hope,mSD,InfernO,legend-rg and maybe a few more ;)